<?xml version="1.0" encoding="UTF-8"?>
<svg xmlns="http://www.w3.org/2000/svg" xmlns:xlink="http://www.w3.org/1999/xlink" width="288px" height="252px" viewBox="0 0 288 252" version="1.1" id="Fig:dens">
  <metadata xmlns:gridsvg="http://www.stat.auckland.ac.nz/~paul/R/gridSVG/">
    <gridsvg:generator name="gridSVG" version="1.7-5" time="2023-05-20 11:47:25"/>
    <gridsvg:argument name="name" value="D:/Bioinform&#xE1;tica/An&#xE1;lisis_Datos_&#xD3;micos/PEC2_Analisis_Microarrays/PEC_2_Analisis_Datos_Microarrays/results/QCDir.Norm/dens.svg"/>
    <gridsvg:argument name="exportCoords" value="none"/>
    <gridsvg:argument name="exportMappings" value="none"/>
    <gridsvg:argument name="exportJS" value="none"/>
    <gridsvg:argument name="res" value="72"/>
    <gridsvg:argument name="prefix" value="Fig:dens"/>
    <gridsvg:argument name="addClasses" value="FALSE"/>
    <gridsvg:argument name="indent" value="TRUE"/>
    <gridsvg:argument name="htmlWrapper" value="FALSE"/>
    <gridsvg:argument name="usePaths" value="none"/>
    <gridsvg:argument name="uniqueNames" value="TRUE"/>
    <gridsvg:separator name="id.sep" value="."/>
    <gridsvg:separator name="gPath.sep" value="::"/>
    <gridsvg:separator name="vpPath.sep" value="::"/>
  </metadata>
  <g transform="translate(0, 252) scale(1, -1)">
    <g id="Fig:densgridSVG" fill="none" stroke="rgb(0,0,0)" stroke-dasharray="none" stroke-width="0.75" font-size="12" font-family="Helvetica, Arial, FreeSans, Liberation Sans, Nimbus Sans L, sans-serif" opacity="1" stroke-linecap="round" stroke-linejoin="round" stroke-miterlimit="10" stroke-opacity="1" fill-opacity="0" font-weight="normal" font-style="normal">
      <g id="Fig:densplot_01.background.1">
        <rect id="Fig:densplot_01.background.1.1" x="0" y="0" width="288" height="252" transform="" fill="none" stroke="none" stroke-opacity="0" fill-opacity="0"/>
      </g>
      <g id="Fig:densplot_01.toplevel.vp.1" font-size="12">
        <g id="Fig:densplot_01.ylab.vp.1">
          <g id="Fig:densplot_01.ylab.1">
            <g id="Fig:densplot_01.ylab.1.1" transform="translate(16.31, 141.09)" stroke-width="0.1">
              <g id="Fig:densplot_01.ylab.1.1.scale" transform="scale(1, -1)">
                <text x="0" y="0" id="Fig:densplot_01.ylab.1.1.text" transform="rotate(-90)" text-anchor="middle" opacity="1" stroke="rgb(0,0,0)" fill="rgb(0,0,0)" stroke-opacity="1" fill-opacity="1" font-size="12" font-weight="normal" font-style="normal">
                  <tspan id="Fig:densplot_01.ylab.1.1.tspan.1" dy="4.31" x="0">Density</tspan>
                </text>
              </g>
            </g>
          </g>
        </g>
        <g id="Fig:densplot_01.figure.vp.1"/>
        <defs>
          <clipPath id="Fig:densplot_01.panel.1.1.vp.1.clipPath">
            <rect x="50.8" y="48.19" width="225.2" height="185.81" fill="none" stroke="none"/>
          </clipPath>
        </defs>
        <g id="Fig:densplot_01.panel.1.1.vp.1" clip-path="url(#Fig:densplot_01.panel.1.1.vp.1.clipPath)"/>
        <g id="Fig:densplot_01.strip.1.1.off.vp.1"/>
        <g id="Fig:densplot_01.strip.left.1.1.off.vp.1">
          <g id="Fig:densplot_01.ticks.left.panel.1.1.1">
            <polyline id="Fig:densplot_01.ticks.left.panel.1.1.1.1" points="50.8,59.59 45.13,59.59" stroke="rgb(0,0,0)" opacity="1" stroke-dasharray="none" stroke-width="0.75" stroke-opacity="1" fill="none"/>
            <polyline id="Fig:densplot_01.ticks.left.panel.1.1.1.2" points="50.8,90.48 45.13,90.48" stroke="rgb(0,0,0)" opacity="1" stroke-dasharray="none" stroke-width="0.75" stroke-opacity="1" fill="none"/>
            <polyline id="Fig:densplot_01.ticks.left.panel.1.1.1.3" points="50.8,121.37 45.13,121.37" stroke="rgb(0,0,0)" opacity="1" stroke-dasharray="none" stroke-width="0.75" stroke-opacity="1" fill="none"/>
            <polyline id="Fig:densplot_01.ticks.left.panel.1.1.1.4" points="50.8,152.27 45.13,152.27" stroke="rgb(0,0,0)" opacity="1" stroke-dasharray="none" stroke-width="0.75" stroke-opacity="1" fill="none"/>
            <polyline id="Fig:densplot_01.ticks.left.panel.1.1.1.5" points="50.8,183.16 45.13,183.16" stroke="rgb(0,0,0)" opacity="1" stroke-dasharray="none" stroke-width="0.75" stroke-opacity="1" fill="none"/>
            <polyline id="Fig:densplot_01.ticks.left.panel.1.1.1.6" points="50.8,214.06 45.13,214.06" stroke="rgb(0,0,0)" opacity="1" stroke-dasharray="none" stroke-width="0.75" stroke-opacity="1" fill="none"/>
          </g>
          <g id="Fig:densplot_01.ticklabels.left.panel.1.1.1">
            <g id="Fig:densplot_01.ticklabels.left.panel.1.1.1.1" transform="translate(39.47, 59.59)" stroke-width="0.1">
              <g id="Fig:densplot_01.ticklabels.left.panel.1.1.1.1.scale" transform="scale(1, -1)">
                <text x="0" y="0" id="Fig:densplot_01.ticklabels.left.panel.1.1.1.1.text" transform="rotate(-90)" text-anchor="middle" stroke="rgb(0,0,0)" opacity="1" fill="rgb(0,0,0)" stroke-opacity="1" fill-opacity="1" font-size="9.6" font-weight="normal" font-style="normal">
                  <tspan id="Fig:densplot_01.ticklabels.left.panel.1.1.1.1.tspan.1" dy="0" x="0">0.00</tspan>
                </text>
              </g>
            </g>
            <g id="Fig:densplot_01.ticklabels.left.panel.1.1.1.2" transform="translate(39.47, 90.48)" stroke-width="0.1">
              <g id="Fig:densplot_01.ticklabels.left.panel.1.1.1.2.scale" transform="scale(1, -1)">
                <text x="0" y="0" id="Fig:densplot_01.ticklabels.left.panel.1.1.1.2.text" transform="rotate(-90)" text-anchor="middle" stroke="rgb(0,0,0)" opacity="1" fill="rgb(0,0,0)" stroke-opacity="1" fill-opacity="1" font-size="9.6" font-weight="normal" font-style="normal">
                  <tspan id="Fig:densplot_01.ticklabels.left.panel.1.1.1.2.tspan.1" dy="0" x="0">0.05</tspan>
                </text>
              </g>
            </g>
            <g id="Fig:densplot_01.ticklabels.left.panel.1.1.1.3" transform="translate(39.47, 121.37)" stroke-width="0.1">
              <g id="Fig:densplot_01.ticklabels.left.panel.1.1.1.3.scale" transform="scale(1, -1)">
                <text x="0" y="0" id="Fig:densplot_01.ticklabels.left.panel.1.1.1.3.text" transform="rotate(-90)" text-anchor="middle" stroke="rgb(0,0,0)" opacity="1" fill="rgb(0,0,0)" stroke-opacity="1" fill-opacity="1" font-size="9.6" font-weight="normal" font-style="normal">
                  <tspan id="Fig:densplot_01.ticklabels.left.panel.1.1.1.3.tspan.1" dy="0" x="0">0.10</tspan>
                </text>
              </g>
            </g>
            <g id="Fig:densplot_01.ticklabels.left.panel.1.1.1.4" transform="translate(39.47, 152.27)" stroke-width="0.1">
              <g id="Fig:densplot_01.ticklabels.left.panel.1.1.1.4.scale" transform="scale(1, -1)">
                <text x="0" y="0" id="Fig:densplot_01.ticklabels.left.panel.1.1.1.4.text" transform="rotate(-90)" text-anchor="middle" stroke="rgb(0,0,0)" opacity="1" fill="rgb(0,0,0)" stroke-opacity="1" fill-opacity="1" font-size="9.6" font-weight="normal" font-style="normal">
                  <tspan id="Fig:densplot_01.ticklabels.left.panel.1.1.1.4.tspan.1" dy="0" x="0">0.15</tspan>
                </text>
              </g>
            </g>
            <g id="Fig:densplot_01.ticklabels.left.panel.1.1.1.5" transform="translate(39.47, 183.16)" stroke-width="0.1">
              <g id="Fig:densplot_01.ticklabels.left.panel.1.1.1.5.scale" transform="scale(1, -1)">
                <text x="0" y="0" id="Fig:densplot_01.ticklabels.left.panel.1.1.1.5.text" transform="rotate(-90)" text-anchor="middle" stroke="rgb(0,0,0)" opacity="1" fill="rgb(0,0,0)" stroke-opacity="1" fill-opacity="1" font-size="9.6" font-weight="normal" font-style="normal">
                  <tspan id="Fig:densplot_01.ticklabels.left.panel.1.1.1.5.tspan.1" dy="0" x="0">0.20</tspan>
                </text>
              </g>
            </g>
            <g id="Fig:densplot_01.ticklabels.left.panel.1.1.1.6" transform="translate(39.47, 214.06)" stroke-width="0.1">
              <g id="Fig:densplot_01.ticklabels.left.panel.1.1.1.6.scale" transform="scale(1, -1)">
                <text x="0" y="0" id="Fig:densplot_01.ticklabels.left.panel.1.1.1.6.text" transform="rotate(-90)" text-anchor="middle" stroke="rgb(0,0,0)" opacity="1" fill="rgb(0,0,0)" stroke-opacity="1" fill-opacity="1" font-size="9.6" font-weight="normal" font-style="normal">
                  <tspan id="Fig:densplot_01.ticklabels.left.panel.1.1.1.6.tspan.1" dy="0" x="0">0.25</tspan>
                </text>
              </g>
            </g>
          </g>
        </g>
        <g id="Fig:densplot_01.panel.1.1.off.vp.1">
          <g id="Fig:densplot_01.ticks.bottom.panel.1.1.1">
            <polyline id="Fig:densplot_01.ticks.bottom.panel.1.1.1.1" points="60.72,48.19 60.72,42.52" stroke="rgb(0,0,0)" opacity="1" stroke-dasharray="none" stroke-width="0.75" stroke-opacity="1" fill="none"/>
            <polyline id="Fig:densplot_01.ticks.bottom.panel.1.1.1.2" points="97.28,48.19 97.28,42.52" stroke="rgb(0,0,0)" opacity="1" stroke-dasharray="none" stroke-width="0.75" stroke-opacity="1" fill="none"/>
            <polyline id="Fig:densplot_01.ticks.bottom.panel.1.1.1.3" points="133.83,48.19 133.83,42.52" stroke="rgb(0,0,0)" opacity="1" stroke-dasharray="none" stroke-width="0.75" stroke-opacity="1" fill="none"/>
            <polyline id="Fig:densplot_01.ticks.bottom.panel.1.1.1.4" points="170.39,48.19 170.39,42.52" stroke="rgb(0,0,0)" opacity="1" stroke-dasharray="none" stroke-width="0.75" stroke-opacity="1" fill="none"/>
            <polyline id="Fig:densplot_01.ticks.bottom.panel.1.1.1.5" points="206.95,48.19 206.95,42.52" stroke="rgb(0,0,0)" opacity="1" stroke-dasharray="none" stroke-width="0.75" stroke-opacity="1" fill="none"/>
            <polyline id="Fig:densplot_01.ticks.bottom.panel.1.1.1.6" points="243.51,48.19 243.51,42.52" stroke="rgb(0,0,0)" opacity="1" stroke-dasharray="none" stroke-width="0.75" stroke-opacity="1" fill="none"/>
          </g>
          <g id="Fig:densplot_01.ticklabels.bottom.panel.1.1.1">
            <g id="Fig:densplot_01.ticklabels.bottom.panel.1.1.1.1" transform="translate(60.72, 36.85)" stroke-width="0.1">
              <g id="Fig:densplot_01.ticklabels.bottom.panel.1.1.1.1.scale" transform="scale(1, -1)">
                <text x="0" y="0" id="Fig:densplot_01.ticklabels.bottom.panel.1.1.1.1.text" text-anchor="middle" stroke="rgb(0,0,0)" opacity="1" fill="rgb(0,0,0)" stroke-opacity="1" fill-opacity="1" font-size="9.6" font-weight="normal" font-style="normal">
                  <tspan id="Fig:densplot_01.ticklabels.bottom.panel.1.1.1.1.tspan.1" dy="7.18" x="0">2</tspan>
                </text>
              </g>
            </g>
            <g id="Fig:densplot_01.ticklabels.bottom.panel.1.1.1.2" transform="translate(97.28, 36.85)" stroke-width="0.1">
              <g id="Fig:densplot_01.ticklabels.bottom.panel.1.1.1.2.scale" transform="scale(1, -1)">
                <text x="0" y="0" id="Fig:densplot_01.ticklabels.bottom.panel.1.1.1.2.text" text-anchor="middle" stroke="rgb(0,0,0)" opacity="1" fill="rgb(0,0,0)" stroke-opacity="1" fill-opacity="1" font-size="9.6" font-weight="normal" font-style="normal">
                  <tspan id="Fig:densplot_01.ticklabels.bottom.panel.1.1.1.2.tspan.1" dy="7.18" x="0">4</tspan>
                </text>
              </g>
            </g>
            <g id="Fig:densplot_01.ticklabels.bottom.panel.1.1.1.3" transform="translate(133.83, 36.85)" stroke-width="0.1">
              <g id="Fig:densplot_01.ticklabels.bottom.panel.1.1.1.3.scale" transform="scale(1, -1)">
                <text x="0" y="0" id="Fig:densplot_01.ticklabels.bottom.panel.1.1.1.3.text" text-anchor="middle" stroke="rgb(0,0,0)" opacity="1" fill="rgb(0,0,0)" stroke-opacity="1" fill-opacity="1" font-size="9.6" font-weight="normal" font-style="normal">
                  <tspan id="Fig:densplot_01.ticklabels.bottom.panel.1.1.1.3.tspan.1" dy="7.18" x="0">6</tspan>
                </text>
              </g>
            </g>
            <g id="Fig:densplot_01.ticklabels.bottom.panel.1.1.1.4" transform="translate(170.39, 36.85)" stroke-width="0.1">
              <g id="Fig:densplot_01.ticklabels.bottom.panel.1.1.1.4.scale" transform="scale(1, -1)">
                <text x="0" y="0" id="Fig:densplot_01.ticklabels.bottom.panel.1.1.1.4.text" text-anchor="middle" stroke="rgb(0,0,0)" opacity="1" fill="rgb(0,0,0)" stroke-opacity="1" fill-opacity="1" font-size="9.6" font-weight="normal" font-style="normal">
                  <tspan id="Fig:densplot_01.ticklabels.bottom.panel.1.1.1.4.tspan.1" dy="7.18" x="0">8</tspan>
                </text>
              </g>
            </g>
            <g id="Fig:densplot_01.ticklabels.bottom.panel.1.1.1.5" transform="translate(206.95, 36.85)" stroke-width="0.1">
              <g id="Fig:densplot_01.ticklabels.bottom.panel.1.1.1.5.scale" transform="scale(1, -1)">
                <text x="0" y="0" id="Fig:densplot_01.ticklabels.bottom.panel.1.1.1.5.text" text-anchor="middle" stroke="rgb(0,0,0)" opacity="1" fill="rgb(0,0,0)" stroke-opacity="1" fill-opacity="1" font-size="9.6" font-weight="normal" font-style="normal">
                  <tspan id="Fig:densplot_01.ticklabels.bottom.panel.1.1.1.5.tspan.1" dy="7.18" x="0">10</tspan>
                </text>
              </g>
            </g>
            <g id="Fig:densplot_01.ticklabels.bottom.panel.1.1.1.6" transform="translate(243.51, 36.85)" stroke-width="0.1">
              <g id="Fig:densplot_01.ticklabels.bottom.panel.1.1.1.6.scale" transform="scale(1, -1)">
                <text x="0" y="0" id="Fig:densplot_01.ticklabels.bottom.panel.1.1.1.6.text" text-anchor="middle" stroke="rgb(0,0,0)" opacity="1" fill="rgb(0,0,0)" stroke-opacity="1" fill-opacity="1" font-size="9.6" font-weight="normal" font-style="normal">
                  <tspan id="Fig:densplot_01.ticklabels.bottom.panel.1.1.1.6.tspan.1" dy="7.18" x="0">12</tspan>
                </text>
              </g>
            </g>
          </g>
        </g>
        <defs>
          <clipPath id="Fig:densplot_01.panel.1.1.vp.2.clipPath">
            <rect x="50.8" y="48.19" width="225.2" height="185.81" fill="none" stroke="none"/>
          </clipPath>
        </defs>
        <g id="Fig:densplot_01.panel.1.1.vp.2" clip-path="url(#Fig:densplot_01.panel.1.1.vp.2.clipPath)">
          <g id="Fig:densplot_01.xyplot.lines.group.1.panel.1.1.1">
            <polyline id="Fig:densplot_01.xyplot.lines.group.1.panel.1.1.1.1" points="64.82,59.6 65.21,59.6 65.59,59.61 65.98,59.62 66.36,59.63 66.75,59.64 67.13,59.66 67.52,59.68 67.91,59.72 68.29,59.76 68.68,59.81 69.06,59.88 69.45,59.96 69.83,60.07 70.22,60.21 70.61,60.38 70.99,60.58 71.38,60.83 71.76,61.13 72.15,61.5 72.53,61.95 72.92,62.48 73.31,63.1 73.69,63.82 74.08,64.65 74.46,65.63 74.85,66.76 75.24,68.04 75.62,69.5 76.01,71.12 76.39,72.94 76.78,74.94 77.16,77.17 77.55,79.62 77.94,82.28 78.32,85.15 78.71,88.23 79.09,91.5 79.48,94.97 79.86,98.63 80.25,102.47 80.64,106.47 81.02,110.59 81.41,114.82 81.79,119.14 82.18,123.53 82.56,127.97 82.95,132.43 83.34,136.87 83.72,141.29 84.11,145.65 84.49,149.94 84.88,154.15 85.26,158.25 85.65,162.2 86.04,166.03 86.42,169.71 86.81,173.24 87.19,176.62 87.58,179.83 87.96,182.87 88.35,185.73 88.74,188.43 89.12,190.96 89.51,193.34 89.89,195.57 90.28,197.64 90.67,199.56 91.05,201.32 91.44,202.94 91.82,204.44 92.21,205.81 92.59,207.05 92.98,208.18 93.37,209.19 93.75,210.08 94.14,210.86 94.52,211.56 94.91,212.16 95.29,212.67 95.68,213.11 96.07,213.46 96.45,213.74 96.84,213.95 97.22,214.11 97.61,214.21 97.99,214.26 98.38,214.26 98.77,214.21 99.15,214.12 99.54,213.99 99.92,213.83 100.31,213.63 100.69,213.39 101.08,213.13 101.47,212.82 101.85,212.47 102.24,212.09 102.62,211.67 103.01,211.22 103.4,210.72 103.78,210.19 104.17,209.61 104.55,208.99 104.94,208.32 105.32,207.62 105.71,206.88 106.1,206.09 106.48,205.27 106.87,204.42 107.25,203.52 107.64,202.59 108.02,201.64 108.41,200.65 108.8,199.65 109.18,198.63 109.57,197.58 109.95,196.52 110.34,195.46 110.72,194.38 111.11,193.3 111.5,192.22 111.88,191.14 112.27,190.06 112.65,188.98 113.04,187.92 113.42,186.86 113.81,185.82 114.2,184.79 114.58,183.77 114.97,182.76 115.35,181.77 115.74,180.8 116.12,179.85 116.51,178.92 116.9,178 117.28,177.1 117.67,176.22 118.05,175.36 118.44,174.52 118.83,173.7 119.21,172.9 119.6,172.11 119.98,171.34 120.37,170.59 120.75,169.85 121.14,169.13 121.53,168.41 121.91,167.71 122.3,167.02 122.68,166.34 123.07,165.67 123.45,165 123.84,164.34 124.23,163.69 124.61,163.04 125,162.4 125.38,161.76 125.77,161.12 126.15,160.49 126.54,159.86 126.93,159.23 127.31,158.6 127.7,157.98 128.08,157.35 128.47,156.72 128.85,156.09 129.24,155.46 129.63,154.82 130.01,154.19 130.4,153.54 130.78,152.9 131.17,152.26 131.55,151.61 131.94,150.96 132.33,150.31 132.71,149.66 133.1,149.01 133.48,148.36 133.87,147.72 134.26,147.08 134.64,146.45 135.03,145.83 135.41,145.22 135.8,144.61 136.18,144.01 136.57,143.42 136.96,142.84 137.34,142.27 137.73,141.71 138.11,141.16 138.5,140.61 138.88,140.07 139.27,139.54 139.66,139.01 140.04,138.49 140.43,137.97 140.81,137.45 141.2,136.94 141.58,136.42 141.97,135.91 142.36,135.4 142.74,134.9 143.13,134.39 143.51,133.89 143.9,133.38 144.28,132.88 144.67,132.39 145.06,131.9 145.44,131.41 145.83,130.92 146.21,130.44 146.6,129.97 146.98,129.5 147.37,129.03 147.76,128.57 148.14,128.12 148.53,127.67 148.91,127.23 149.3,126.79 149.69,126.35 150.07,125.92 150.46,125.49 150.84,125.06 151.23,124.64 151.61,124.21 152,123.79 152.39,123.38 152.77,122.96 153.16,122.55 153.54,122.14 153.93,121.74 154.31,121.34 154.7,120.95 155.09,120.57 155.47,120.19 155.86,119.83 156.24,119.47 156.63,119.12 157.01,118.78 157.4,118.45 157.79,118.13 158.17,117.82 158.56,117.51 158.94,117.21 159.33,116.92 159.71,116.62 160.1,116.33 160.49,116.03 160.87,115.73 161.26,115.43 161.64,115.12 162.03,114.81 162.41,114.49 162.8,114.15 163.19,113.81 163.57,113.47 163.96,113.11 164.34,112.74 164.73,112.37 165.12,112 165.5,111.62 165.89,111.24 166.27,110.86 166.66,110.49 167.04,110.12 167.43,109.75 167.82,109.4 168.2,109.05 168.59,108.72 168.97,108.4 169.36,108.1 169.74,107.81 170.13,107.54 170.52,107.29 170.9,107.06 171.29,106.84 171.67,106.64 172.06,106.46 172.44,106.3 172.83,106.15 173.22,106.01 173.6,105.88 173.99,105.77 174.37,105.66 174.76,105.56 175.14,105.47 175.53,105.37 175.92,105.28 176.3,105.18 176.69,105.08 177.07,104.97 177.46,104.86 177.84,104.73 178.23,104.59 178.62,104.44 179,104.28 179.39,104.1 179.77,103.9 180.16,103.69 180.55,103.47 180.93,103.24 181.32,103 181.7,102.75 182.09,102.49 182.47,102.23 182.86,101.97 183.25,101.7 183.63,101.44 184.02,101.19 184.4,100.94 184.79,100.7 185.17,100.47 185.56,100.25 185.95,100.04 186.33,99.85 186.72,99.66 187.1,99.49 187.49,99.32 187.87,99.17 188.26,99.03 188.65,98.89 189.03,98.76 189.42,98.63 189.8,98.51 190.19,98.38 190.57,98.26 190.96,98.14 191.35,98.01 191.73,97.88 192.12,97.75 192.5,97.61 192.89,97.47 193.27,97.33 193.66,97.17 194.05,97.01 194.43,96.85 194.82,96.68 195.2,96.51 195.59,96.33 195.98,96.15 196.36,95.97 196.75,95.78 197.13,95.59 197.52,95.41 197.9,95.22 198.29,95.02 198.68,94.83 199.06,94.64 199.45,94.44 199.83,94.25 200.22,94.05 200.6,93.85 200.99,93.65 201.38,93.44 201.76,93.23 202.15,93.02 202.53,92.8 202.92,92.57 203.3,92.35 203.69,92.11 204.08,91.88 204.46,91.63 204.85,91.39 205.23,91.14 205.62,90.89 206,90.64 206.39,90.39 206.78,90.14 207.16,89.9 207.55,89.66 207.93,89.42 208.32,89.2 208.7,88.98 209.09,88.76 209.48,88.56 209.86,88.37 210.25,88.19 210.63,88.02 211.02,87.86 211.41,87.7 211.79,87.56 212.18,87.42 212.56,87.28 212.95,87.14 213.33,87.01 213.72,86.87 214.11,86.73 214.49,86.58 214.88,86.43 215.26,86.27 215.65,86.09 216.03,85.91 216.42,85.72 216.81,85.52 217.19,85.3 217.58,85.08 217.96,84.84 218.35,84.6 218.73,84.35 219.12,84.09 219.51,83.83 219.89,83.57 220.28,83.3 220.66,83.04 221.05,82.77 221.43,82.51 221.82,82.24 222.21,81.98 222.59,81.73 222.98,81.47 223.36,81.22 223.75,80.97 224.13,80.73 224.52,80.49 224.91,80.25 225.29,80.01 225.68,79.78 226.06,79.55 226.45,79.32 226.84,79.09 227.22,78.87 227.61,78.64 227.99,78.42 228.38,78.2 228.76,77.99 229.15,77.77 229.54,77.56 229.92,77.34 230.31,77.13 230.69,76.92 231.08,76.71 231.46,76.49 231.85,76.28 232.24,76.07 232.62,75.85 233.01,75.64 233.39,75.43 233.78,75.21 234.16,75 234.55,74.78 234.94,74.57 235.32,74.36 235.71,74.15 236.09,73.94 236.48,73.73 236.86,73.52 237.25,73.32 237.64,73.12 238.02,72.92 238.41,72.72 238.79,72.53 239.18,72.33 239.57,72.13 239.95,71.94 240.34,71.74 240.72,71.54 241.11,71.34 241.49,71.13 241.88,70.91 242.27,70.69 242.65,70.46 243.04,70.22 243.42,69.97 243.81,69.71 244.19,69.44 244.58,69.16 244.97,68.86 245.35,68.55 245.74,68.22 246.12,67.89 246.51,67.54 246.89,67.18 247.28,66.81 247.67,66.43 248.05,66.05 248.44,65.66 248.82,65.26 249.21,64.87 249.59,64.48 249.98,64.1 250.37,63.72 250.75,63.36 251.14,63.01 251.52,62.67 251.91,62.35 252.29,62.04 252.68,61.76 253.07,61.5 253.45,61.26 253.84,61.03 254.22,60.83 254.61,60.65 255,60.49 255.38,60.35 255.77,60.23 256.15,60.12 256.54,60.03 256.92,59.95 257.31,59.88 257.7,59.82 258.08,59.77 258.47,59.74 258.85,59.7 259.24,59.68 259.62,59.66 260.01,59.64 260.4,59.63 260.78,59.62 261.17,59.61 261.55,59.6 261.94,59.6" stroke-dasharray="none" stroke="rgb(31,120,180)" stroke-width="0.75" opacity="1" stroke-opacity="1" fill="none"/>
          </g>
          <g id="Fig:densplot_01.xyplot.lines.group.2.panel.1.1.1">
            <polyline id="Fig:densplot_01.xyplot.lines.group.2.panel.1.1.1.1" points="64.67,59.6 65.06,59.61 65.44,59.61 65.83,59.62 66.22,59.64 66.6,59.65 66.99,59.68 67.38,59.71 67.76,59.74 68.15,59.79 68.53,59.86 68.92,59.94 69.31,60.04 69.69,60.16 70.08,60.32 70.47,60.52 70.85,60.76 71.24,61.05 71.63,61.39 72.01,61.81 72.4,62.3 72.78,62.89 73.17,63.58 73.56,64.39 73.94,65.33 74.33,66.4 74.72,67.62 75.1,69 75.49,70.59 75.88,72.37 76.26,74.34 76.65,76.53 77.04,78.92 77.42,81.53 77.81,84.36 78.19,87.45 78.58,90.76 78.97,94.28 79.35,98.01 79.74,101.92 80.13,106.02 80.51,110.27 80.9,114.7 81.29,119.24 81.67,123.87 82.06,128.57 82.44,133.32 82.83,138.08 83.22,142.84 83.6,147.56 83.99,152.22 84.38,156.78 84.76,161.24 85.15,165.58 85.54,169.77 85.92,173.8 86.31,177.63 86.7,181.29 87.08,184.75 87.47,188.02 87.85,191.1 88.24,194 88.63,196.69 89.01,199.17 89.4,201.47 89.79,203.61 90.17,205.57 90.56,207.38 90.95,209.04 91.33,210.56 91.72,211.91 92.1,213.14 92.49,214.26 92.88,215.25 93.26,216.14 93.65,216.92 94.04,217.6 94.42,218.16 94.81,218.64 95.2,219.02 95.58,219.32 95.97,219.53 96.36,219.67 96.74,219.72 97.13,219.69 97.51,219.59 97.9,219.42 98.29,219.19 98.67,218.89 99.06,218.54 99.45,218.13 99.83,217.67 100.22,217.15 100.61,216.59 100.99,215.98 101.38,215.33 101.76,214.64 102.15,213.91 102.54,213.13 102.92,212.31 103.31,211.46 103.7,210.57 104.08,209.65 104.47,208.7 104.86,207.7 105.24,206.67 105.63,205.61 106.01,204.52 106.4,203.4 106.79,202.26 107.17,201.09 107.56,199.89 107.95,198.68 108.33,197.44 108.72,196.2 109.11,194.94 109.49,193.67 109.88,192.39 110.27,191.12 110.65,189.84 111.04,188.58 111.42,187.32 111.81,186.07 112.2,184.84 112.58,183.63 112.97,182.44 113.36,181.28 113.74,180.16 114.13,179.06 114.52,177.99 114.9,176.96 115.29,175.96 115.67,175.01 116.06,174.09 116.45,173.2 116.83,172.35 117.22,171.53 117.61,170.74 117.99,169.99 118.38,169.26 118.77,168.55 119.15,167.86 119.54,167.19 119.93,166.53 120.31,165.89 120.7,165.25 121.08,164.62 121.47,164 121.86,163.37 122.24,162.75 122.63,162.13 123.02,161.5 123.4,160.87 123.79,160.24 124.18,159.61 124.56,158.97 124.95,158.32 125.33,157.68 125.72,157.02 126.11,156.37 126.49,155.71 126.88,155.05 127.27,154.38 127.65,153.72 128.04,153.05 128.43,152.37 128.81,151.7 129.2,151.02 129.59,150.33 129.97,149.65 130.36,148.97 130.74,148.28 131.13,147.59 131.52,146.9 131.9,146.22 132.29,145.53 132.68,144.85 133.06,144.17 133.45,143.49 133.84,142.82 134.22,142.16 134.61,141.5 134.99,140.85 135.38,140.22 135.77,139.59 136.15,138.98 136.54,138.38 136.93,137.79 137.31,137.22 137.7,136.66 138.09,136.11 138.47,135.58 138.86,135.07 139.25,134.57 139.63,134.08 140.02,133.6 140.4,133.14 140.79,132.68 141.18,132.23 141.56,131.79 141.95,131.35 142.34,130.91 142.72,130.48 143.11,130.04 143.5,129.6 143.88,129.15 144.27,128.7 144.65,128.25 145.04,127.79 145.43,127.32 145.81,126.85 146.2,126.37 146.59,125.89 146.97,125.41 147.36,124.93 147.75,124.45 148.13,123.98 148.52,123.51 148.9,123.06 149.29,122.61 149.68,122.18 150.06,121.77 150.45,121.38 150.84,121 151.22,120.64 151.61,120.3 152,119.97 152.38,119.67 152.77,119.38 153.16,119.11 153.54,118.86 153.93,118.61 154.31,118.38 154.7,118.15 155.09,117.93 155.47,117.72 155.86,117.51 156.25,117.3 156.63,117.09 157.02,116.88 157.41,116.67 157.79,116.45 158.18,116.24 158.56,116.02 158.95,115.79 159.34,115.57 159.72,115.35 160.11,115.12 160.5,114.9 160.88,114.68 161.27,114.46 161.66,114.24 162.04,114.03 162.43,113.82 162.82,113.62 163.2,113.42 163.59,113.23 163.97,113.04 164.36,112.85 164.75,112.66 165.13,112.48 165.52,112.29 165.91,112.1 166.29,111.92 166.68,111.72 167.07,111.53 167.45,111.33 167.84,111.13 168.22,110.92 168.61,110.71 169,110.49 169.38,110.27 169.77,110.04 170.16,109.81 170.54,109.58 170.93,109.34 171.32,109.1 171.7,108.87 172.09,108.63 172.48,108.4 172.86,108.17 173.25,107.94 173.63,107.72 174.02,107.5 174.41,107.29 174.79,107.09 175.18,106.89 175.57,106.7 175.95,106.51 176.34,106.33 176.73,106.15 177.11,105.98 177.5,105.81 177.88,105.64 178.27,105.48 178.66,105.31 179.04,105.15 179.43,104.98 179.82,104.82 180.2,104.65 180.59,104.47 180.98,104.3 181.36,104.11 181.75,103.93 182.14,103.74 182.52,103.54 182.91,103.34 183.29,103.13 183.68,102.92 184.07,102.7 184.45,102.48 184.84,102.26 185.23,102.03 185.61,101.79 186,101.56 186.39,101.32 186.77,101.09 187.16,100.85 187.54,100.62 187.93,100.39 188.32,100.16 188.7,99.93 189.09,99.71 189.48,99.49 189.86,99.28 190.25,99.08 190.64,98.89 191.02,98.7 191.41,98.51 191.79,98.34 192.18,98.17 192.57,98.01 192.95,97.85 193.34,97.7 193.73,97.56 194.11,97.42 194.5,97.28 194.89,97.14 195.27,97.01 195.66,96.87 196.05,96.73 196.43,96.6 196.82,96.45 197.2,96.31 197.59,96.15 197.98,95.99 198.36,95.83 198.75,95.65 199.14,95.47 199.52,95.28 199.91,95.08 200.3,94.87 200.68,94.65 201.07,94.43 201.45,94.2 201.84,93.96 202.23,93.72 202.61,93.47 203,93.22 203.39,92.97 203.77,92.72 204.16,92.47 204.55,92.21 204.93,91.96 205.32,91.71 205.71,91.47 206.09,91.23 206.48,90.99 206.86,90.76 207.25,90.54 207.64,90.32 208.02,90.1 208.41,89.9 208.8,89.7 209.18,89.5 209.57,89.32 209.96,89.13 210.34,88.96 210.73,88.78 211.11,88.61 211.5,88.45 211.89,88.28 212.27,88.12 212.66,87.96 213.05,87.8 213.43,87.63 213.82,87.47 214.21,87.3 214.59,87.14 214.98,86.96 215.37,86.79 215.75,86.61 216.14,86.43 216.52,86.24 216.91,86.05 217.3,85.85 217.68,85.65 218.07,85.45 218.46,85.24 218.84,85.02 219.23,84.81 219.62,84.59 220,84.36 220.39,84.13 220.77,83.9 221.16,83.67 221.55,83.43 221.93,83.19 222.32,82.94 222.71,82.69 223.09,82.44 223.48,82.18 223.87,81.92 224.25,81.66 224.64,81.39 225.03,81.12 225.41,80.84 225.8,80.57 226.18,80.29 226.57,80.01 226.96,79.73 227.34,79.45 227.73,79.17 228.12,78.89 228.5,78.61 228.89,78.34 229.28,78.06 229.66,77.79 230.05,77.53 230.43,77.26 230.82,77 231.21,76.75 231.59,76.5 231.98,76.26 232.37,76.02 232.75,75.78 233.14,75.55 233.53,75.33 233.91,75.12 234.3,74.91 234.68,74.7 235.07,74.51 235.46,74.31 235.84,74.13 236.23,73.95 236.62,73.78 237,73.61 237.39,73.44 237.78,73.28 238.16,73.11 238.55,72.96 238.94,72.79 239.32,72.63 239.71,72.47 240.09,72.3 240.48,72.12 240.87,71.94 241.25,71.75 241.64,71.54 242.03,71.33 242.41,71.1 242.8,70.85 243.19,70.59 243.57,70.32 243.96,70.03 244.34,69.72 244.73,69.39 245.12,69.05 245.5,68.7 245.89,68.33 246.28,67.94 246.66,67.55 247.05,67.14 247.44,66.73 247.82,66.31 248.21,65.89 248.6,65.47 248.98,65.06 249.37,64.64 249.75,64.24 250.14,63.85 250.53,63.46 250.91,63.1 251.3,62.75 251.69,62.41 252.07,62.1 252.46,61.81 252.85,61.55 253.23,61.3 253.62,61.07 254,60.87 254.39,60.68 254.78,60.52 255.16,60.38 255.55,60.25 255.94,60.14 256.32,60.04 256.71,59.96 257.1,59.89 257.48,59.84 257.87,59.79 258.26,59.75 258.64,59.71 259.03,59.69 259.41,59.66 259.8,59.65 260.19,59.63 260.57,59.62 260.96,59.61 261.35,59.61 261.73,59.6 262.12,59.6" stroke-dasharray="none" stroke="rgb(31,120,180)" stroke-width="0.75" opacity="1" stroke-opacity="1" fill="none"/>
          </g>
          <g id="Fig:densplot_01.xyplot.lines.group.3.panel.1.1.1">
            <polyline id="Fig:densplot_01.xyplot.lines.group.3.panel.1.1.1.1" points="64.63,59.6 65.02,59.61 65.4,59.62 65.79,59.63 66.18,59.64 66.56,59.66 66.95,59.69 67.34,59.72 67.72,59.76 68.11,59.82 68.5,59.89 68.88,59.98 69.27,60.09 69.66,60.23 70.04,60.4 70.43,60.62 70.82,60.88 71.2,61.2 71.59,61.59 71.98,62.05 72.36,62.59 72.75,63.22 73.14,63.98 73.52,64.87 73.91,65.89 74.3,67.05 74.68,68.37 75.07,69.86 75.46,71.53 75.84,73.43 76.23,75.53 76.62,77.84 77,80.36 77.39,83.1 77.78,86.05 78.16,89.23 78.55,92.65 78.94,96.27 79.32,100.09 79.71,104.08 80.09,108.23 80.48,112.53 80.87,116.96 81.25,121.51 81.64,126.12 82.03,130.79 82.41,135.48 82.8,140.18 83.19,144.85 83.57,149.46 83.96,153.99 84.35,158.43 84.73,162.74 85.12,166.92 85.51,170.95 85.89,174.82 86.28,178.5 86.67,181.98 87.05,185.27 87.44,188.37 87.83,191.28 88.21,194.01 88.6,196.54 88.99,198.87 89.37,201.02 89.76,203 90.15,204.81 90.53,206.48 90.92,208 91.31,209.38 91.69,210.61 92.08,211.71 92.47,212.7 92.85,213.58 93.24,214.36 93.62,215.04 94.01,215.63 94.4,216.12 94.78,216.52 95.17,216.83 95.56,217.08 95.94,217.25 96.33,217.34 96.72,217.37 97.1,217.32 97.49,217.2 97.88,217.03 98.26,216.79 98.65,216.5 99.04,216.15 99.42,215.75 99.81,215.29 100.2,214.78 100.58,214.22 100.97,213.61 101.36,212.96 101.74,212.27 102.13,211.54 102.52,210.76 102.9,209.94 103.29,209.08 103.68,208.2 104.06,207.28 104.45,206.33 104.84,205.35 105.22,204.34 105.61,203.31 106,202.25 106.38,201.18 106.77,200.09 107.16,198.98 107.54,197.86 107.93,196.73 108.31,195.59 108.7,194.44 109.09,193.29 109.47,192.13 109.86,190.97 110.25,189.81 110.63,188.66 111.02,187.51 111.41,186.36 111.79,185.22 112.18,184.09 112.57,182.97 112.95,181.86 113.34,180.77 113.73,179.69 114.11,178.64 114.5,177.6 114.89,176.58 115.27,175.59 115.66,174.61 116.05,173.67 116.43,172.75 116.82,171.85 117.21,170.97 117.59,170.12 117.98,169.29 118.37,168.48 118.75,167.69 119.14,166.93 119.53,166.17 119.91,165.44 120.3,164.72 120.69,164.01 121.07,163.31 121.46,162.63 121.84,161.95 122.23,161.28 122.62,160.62 123,159.96 123.39,159.31 123.78,158.65 124.16,158.01 124.55,157.36 124.94,156.72 125.32,156.08 125.71,155.44 126.1,154.81 126.48,154.17 126.87,153.54 127.26,152.91 127.64,152.28 128.03,151.66 128.42,151.04 128.8,150.42 129.19,149.8 129.58,149.18 129.96,148.57 130.35,147.96 130.74,147.34 131.12,146.73 131.51,146.12 131.9,145.51 132.28,144.91 132.67,144.3 133.06,143.69 133.44,143.08 133.83,142.48 134.22,141.87 134.6,141.27 134.99,140.67 135.38,140.08 135.76,139.48 136.15,138.9 136.53,138.31 136.92,137.74 137.31,137.17 137.69,136.62 138.08,136.07 138.47,135.53 138.85,135 139.24,134.48 139.63,133.96 140.01,133.46 140.4,132.97 140.79,132.49 141.17,132.02 141.56,131.55 141.95,131.09 142.33,130.63 142.72,130.18 143.11,129.74 143.49,129.3 143.88,128.86 144.27,128.42 144.65,127.99 145.04,127.56 145.43,127.13 145.81,126.7 146.2,126.27 146.59,125.85 146.97,125.43 147.36,125.01 147.75,124.6 148.13,124.2 148.52,123.79 148.91,123.4 149.29,123.01 149.68,122.62 150.07,122.25 150.45,121.88 150.84,121.51 151.22,121.16 151.61,120.81 152,120.47 152.38,120.13 152.77,119.8 153.16,119.47 153.54,119.16 153.93,118.85 154.32,118.54 154.7,118.25 155.09,117.96 155.48,117.68 155.86,117.42 156.25,117.16 156.64,116.92 157.02,116.68 157.41,116.46 157.8,116.25 158.18,116.06 158.57,115.88 158.96,115.71 159.34,115.55 159.73,115.4 160.12,115.27 160.5,115.14 160.89,115.01 161.28,114.9 161.66,114.79 162.05,114.68 162.44,114.56 162.82,114.45 163.21,114.34 163.6,114.22 163.98,114.1 164.37,113.97 164.75,113.83 165.14,113.69 165.53,113.54 165.91,113.39 166.3,113.23 166.69,113.06 167.07,112.89 167.46,112.71 167.85,112.54 168.23,112.35 168.62,112.17 169.01,111.98 169.39,111.79 169.78,111.59 170.17,111.4 170.55,111.2 170.94,111 171.33,110.8 171.71,110.59 172.1,110.39 172.49,110.17 172.87,109.96 173.26,109.74 173.65,109.51 174.03,109.28 174.42,109.05 174.81,108.81 175.19,108.56 175.58,108.31 175.97,108.05 176.35,107.79 176.74,107.53 177.13,107.26 177.51,106.99 177.9,106.72 178.29,106.45 178.67,106.17 179.06,105.9 179.44,105.63 179.83,105.36 180.22,105.1 180.6,104.84 180.99,104.58 181.38,104.33 181.76,104.09 182.15,103.85 182.54,103.62 182.92,103.39 183.31,103.17 183.7,102.95 184.08,102.74 184.47,102.53 184.86,102.33 185.24,102.14 185.63,101.95 186.02,101.76 186.4,101.58 186.79,101.4 187.18,101.22 187.56,101.05 187.95,100.88 188.34,100.71 188.72,100.54 189.11,100.37 189.5,100.21 189.88,100.04 190.27,99.88 190.66,99.71 191.04,99.54 191.43,99.37 191.82,99.2 192.2,99.03 192.59,98.85 192.98,98.68 193.36,98.5 193.75,98.32 194.13,98.14 194.52,97.95 194.91,97.77 195.29,97.58 195.68,97.4 196.07,97.21 196.45,97.02 196.84,96.83 197.23,96.64 197.61,96.46 198,96.27 198.39,96.08 198.77,95.89 199.16,95.7 199.55,95.51 199.93,95.32 200.32,95.13 200.71,94.94 201.09,94.75 201.48,94.56 201.87,94.36 202.25,94.16 202.64,93.96 203.03,93.76 203.41,93.56 203.8,93.35 204.19,93.14 204.57,92.93 204.96,92.72 205.35,92.51 205.73,92.3 206.12,92.08 206.51,91.87 206.89,91.66 207.28,91.45 207.66,91.23 208.05,91.03 208.44,90.82 208.82,90.61 209.21,90.41 209.6,90.2 209.98,90 210.37,89.8 210.76,89.6 211.14,89.39 211.53,89.19 211.92,88.98 212.3,88.77 212.69,88.56 213.08,88.34 213.46,88.12 213.85,87.89 214.24,87.66 214.62,87.42 215.01,87.17 215.4,86.91 215.78,86.65 216.17,86.39 216.56,86.12 216.94,85.84 217.33,85.56 217.72,85.28 218.1,84.99 218.49,84.71 218.88,84.42 219.26,84.14 219.65,83.85 220.04,83.58 220.42,83.3 220.81,83.04 221.2,82.77 221.58,82.52 221.97,82.27 222.35,82.02 222.74,81.79 223.13,81.55 223.51,81.33 223.9,81.1 224.29,80.88 224.67,80.67 225.06,80.45 225.45,80.24 225.83,80.03 226.22,79.82 226.61,79.6 226.99,79.39 227.38,79.17 227.77,78.95 228.15,78.73 228.54,78.51 228.93,78.28 229.31,78.06 229.7,77.83 230.09,77.61 230.47,77.38 230.86,77.16 231.25,76.94 231.63,76.72 232.02,76.51 232.41,76.29 232.79,76.08 233.18,75.88 233.57,75.68 233.95,75.48 234.34,75.29 234.73,75.1 235.11,74.91 235.5,74.73 235.88,74.54 236.27,74.36 236.66,74.17 237.04,73.98 237.43,73.79 237.82,73.6 238.2,73.41 238.59,73.21 238.98,73 239.36,72.8 239.75,72.58 240.14,72.36 240.52,72.14 240.91,71.9 241.3,71.67 241.68,71.42 242.07,71.16 242.46,70.9 242.84,70.63 243.23,70.35 243.62,70.07 244,69.77 244.39,69.46 244.78,69.14 245.16,68.81 245.55,68.47 245.94,68.12 246.32,67.76 246.71,67.39 247.1,67.01 247.48,66.63 247.87,66.24 248.26,65.84 248.64,65.45 249.03,65.06 249.42,64.66 249.8,64.28 250.19,63.9 250.57,63.53 250.96,63.17 251.35,62.83 251.73,62.5 252.12,62.19 252.51,61.9 252.89,61.63 253.28,61.38 253.67,61.15 254.05,60.94 254.44,60.75 254.83,60.58 255.21,60.43 255.6,60.3 255.99,60.18 256.37,60.08 256.76,59.99 257.15,59.92 257.53,59.86 257.92,59.81 258.31,59.76 258.69,59.73 259.08,59.7 259.47,59.67 259.85,59.65 260.24,59.64 260.63,59.63 261.01,59.62 261.4,59.61 261.79,59.6 262.17,59.6" stroke-dasharray="none" stroke="rgb(31,120,180)" stroke-width="0.75" opacity="1" stroke-opacity="1" fill="none"/>
          </g>
          <g id="Fig:densplot_01.xyplot.lines.group.4.panel.1.1.1">
            <polyline id="Fig:densplot_01.xyplot.lines.group.4.panel.1.1.1.1" points="64.7,59.6 65.08,59.6 65.47,59.61 65.86,59.62 66.24,59.63 66.63,59.65 67.01,59.67 67.4,59.7 67.79,59.74 68.17,59.79 68.56,59.85 68.95,59.93 69.33,60.04 69.72,60.16 70.11,60.32 70.49,60.52 70.88,60.76 71.26,61.06 71.65,61.41 72.04,61.83 72.42,62.34 72.81,62.94 73.2,63.65 73.58,64.49 73.97,65.45 74.36,66.56 74.74,67.82 75.13,69.24 75.52,70.87 75.9,72.7 76.29,74.73 76.67,76.98 77.06,79.44 77.45,82.12 77.83,85.02 78.22,88.17 78.61,91.55 78.99,95.14 79.38,98.93 79.77,102.9 80.15,107.05 80.54,111.35 80.92,115.81 81.31,120.38 81.7,125.04 82.08,129.76 82.47,134.51 82.86,139.28 83.24,144.03 83.63,148.74 84.02,153.39 84.4,157.94 84.79,162.39 85.17,166.71 85.56,170.89 85.95,174.92 86.33,178.75 86.72,182.41 87.11,185.88 87.49,189.16 87.88,192.26 88.27,195.17 88.65,197.89 89.04,200.39 89.43,202.71 89.81,204.85 90.2,206.82 90.58,208.62 90.97,210.27 91.36,211.75 91.74,213.07 92.13,214.24 92.52,215.28 92.9,216.19 93.29,216.98 93.68,217.66 94.06,218.21 94.45,218.65 94.83,218.98 95.22,219.23 95.61,219.38 95.99,219.44 96.38,219.43 96.77,219.33 97.15,219.15 97.54,218.91 97.93,218.61 98.31,218.24 98.7,217.82 99.09,217.36 99.47,216.84 99.86,216.28 100.24,215.67 100.63,215.03 101.02,214.36 101.4,213.66 101.79,212.93 102.18,212.17 102.56,211.38 102.95,210.57 103.34,209.74 103.72,208.88 104.11,208 104.49,207.1 104.88,206.18 105.27,205.23 105.65,204.25 106.04,203.26 106.43,202.24 106.81,201.2 107.2,200.13 107.59,199.04 107.97,197.92 108.36,196.79 108.74,195.63 109.13,194.46 109.52,193.27 109.9,192.06 110.29,190.84 110.68,189.61 111.06,188.38 111.45,187.14 111.84,185.9 112.22,184.67 112.61,183.44 113,182.22 113.38,181.01 113.77,179.82 114.15,178.65 114.54,177.5 114.93,176.38 115.31,175.28 115.7,174.21 116.09,173.17 116.47,172.17 116.86,171.19 117.25,170.25 117.63,169.34 118.02,168.46 118.4,167.62 118.79,166.8 119.18,166.02 119.56,165.26 119.95,164.53 120.34,163.82 120.72,163.14 121.11,162.48 121.5,161.84 121.88,161.22 122.27,160.61 122.65,160.02 123.04,159.43 123.43,158.86 123.81,158.29 124.2,157.73 124.59,157.17 124.97,156.61 125.36,156.05 125.75,155.49 126.13,154.92 126.52,154.34 126.91,153.76 127.29,153.16 127.68,152.56 128.06,151.94 128.45,151.32 128.84,150.68 129.22,150.03 129.61,149.37 130,148.7 130.38,148.02 130.77,147.34 131.16,146.65 131.54,145.96 131.93,145.27 132.31,144.58 132.7,143.89 133.09,143.2 133.47,142.53 133.86,141.86 134.25,141.2 134.63,140.56 135.02,139.93 135.41,139.31 135.79,138.71 136.18,138.12 136.57,137.55 136.95,137 137.34,136.46 137.72,135.95 138.11,135.45 138.5,134.97 138.88,134.51 139.27,134.06 139.66,133.63 140.04,133.21 140.43,132.81 140.82,132.42 141.2,132.03 141.59,131.66 141.97,131.29 142.36,130.93 142.75,130.57 143.13,130.21 143.52,129.84 143.91,129.47 144.29,129.1 144.68,128.72 145.07,128.33 145.45,127.93 145.84,127.53 146.22,127.11 146.61,126.68 147,126.24 147.38,125.8 147.77,125.34 148.16,124.89 148.54,124.42 148.93,123.96 149.32,123.49 149.7,123.03 150.09,122.57 150.48,122.12 150.86,121.67 151.25,121.23 151.63,120.81 152.02,120.39 152.41,119.99 152.79,119.6 153.18,119.23 153.57,118.88 153.95,118.54 154.34,118.21 154.73,117.9 155.11,117.6 155.5,117.31 155.88,117.05 156.27,116.79 156.66,116.54 157.04,116.31 157.43,116.09 157.82,115.87 158.2,115.67 158.59,115.48 158.98,115.29 159.36,115.11 159.75,114.94 160.13,114.78 160.52,114.63 160.91,114.48 161.29,114.34 161.68,114.2 162.07,114.07 162.45,113.95 162.84,113.83 163.23,113.71 163.61,113.6 164,113.49 164.39,113.38 164.77,113.27 165.16,113.16 165.54,113.05 165.93,112.94 166.32,112.82 166.7,112.7 167.09,112.58 167.48,112.45 167.86,112.32 168.25,112.18 168.64,112.04 169.02,111.89 169.41,111.74 169.79,111.58 170.18,111.42 170.57,111.25 170.95,111.07 171.34,110.89 171.73,110.7 172.11,110.51 172.5,110.31 172.89,110.1 173.27,109.89 173.66,109.67 174.04,109.44 174.43,109.21 174.82,108.97 175.2,108.72 175.59,108.47 175.98,108.2 176.36,107.93 176.75,107.66 177.14,107.38 177.52,107.09 177.91,106.81 178.3,106.52 178.68,106.23 179.07,105.94 179.45,105.66 179.84,105.38 180.23,105.11 180.61,104.84 181,104.58 181.39,104.33 181.77,104.09 182.16,103.86 182.55,103.64 182.93,103.43 183.32,103.23 183.7,103.03 184.09,102.84 184.48,102.65 184.86,102.47 185.25,102.29 185.64,102.1 186.02,101.92 186.41,101.73 186.8,101.54 187.18,101.34 187.57,101.14 187.96,100.93 188.34,100.72 188.73,100.5 189.11,100.28 189.5,100.05 189.89,99.81 190.27,99.58 190.66,99.34 191.05,99.1 191.43,98.86 191.82,98.62 192.21,98.38 192.59,98.14 192.98,97.9 193.36,97.67 193.75,97.45 194.14,97.22 194.52,97.01 194.91,96.8 195.3,96.6 195.68,96.41 196.07,96.22 196.46,96.04 196.84,95.88 197.23,95.72 197.61,95.56 198,95.42 198.39,95.28 198.77,95.15 199.16,95.02 199.55,94.9 199.93,94.77 200.32,94.65 200.71,94.53 201.09,94.41 201.48,94.28 201.87,94.15 202.25,94.01 202.64,93.87 203.02,93.72 203.41,93.56 203.8,93.39 204.18,93.21 204.57,93.03 204.96,92.83 205.34,92.63 205.73,92.43 206.12,92.22 206.5,92 206.89,91.78 207.27,91.56 207.66,91.34 208.05,91.12 208.43,90.91 208.82,90.69 209.21,90.48 209.59,90.28 209.98,90.07 210.37,89.87 210.75,89.68 211.14,89.48 211.52,89.29 211.91,89.09 212.3,88.9 212.68,88.7 213.07,88.5 213.46,88.3 213.84,88.08 214.23,87.87 214.62,87.64 215,87.41 215.39,87.16 215.78,86.91 216.16,86.66 216.55,86.39 216.93,86.12 217.32,85.83 217.71,85.54 218.09,85.25 218.48,84.95 218.87,84.66 219.25,84.35 219.64,84.05 220.03,83.75 220.41,83.46 220.8,83.17 221.18,82.88 221.57,82.6 221.96,82.33 222.34,82.07 222.73,81.81 223.12,81.57 223.5,81.34 223.89,81.11 224.28,80.9 224.66,80.69 225.05,80.49 225.43,80.3 225.82,80.11 226.21,79.93 226.59,79.74 226.98,79.56 227.37,79.38 227.75,79.19 228.14,79 228.53,78.81 228.91,78.61 229.3,78.4 229.69,78.19 230.07,77.97 230.46,77.74 230.84,77.5 231.23,77.26 231.62,77.02 232,76.77 232.39,76.52 232.78,76.27 233.16,76.01 233.55,75.76 233.94,75.51 234.32,75.26 234.71,75.01 235.09,74.77 235.48,74.53 235.87,74.3 236.25,74.07 236.64,73.84 237.03,73.62 237.41,73.4 237.8,73.18 238.19,72.97 238.57,72.75 238.96,72.54 239.35,72.33 239.73,72.12 240.12,71.9 240.5,71.68 240.89,71.46 241.28,71.23 241.66,70.99 242.05,70.75 242.44,70.5 242.82,70.25 243.21,69.98 243.6,69.7 243.98,69.42 244.37,69.12 244.75,68.81 245.14,68.48 245.53,68.15 245.91,67.81 246.3,67.46 246.69,67.09 247.07,66.72 247.46,66.34 247.85,65.96 248.23,65.57 248.62,65.19 249,64.8 249.39,64.42 249.78,64.05 250.16,63.68 250.55,63.32 250.94,62.98 251.32,62.65 251.71,62.34 252.1,62.04 252.48,61.77 252.87,61.51 253.26,61.27 253.64,61.05 254.03,60.85 254.41,60.68 254.8,60.52 255.19,60.38 255.57,60.25 255.96,60.14 256.35,60.05 256.73,59.97 257.12,59.9 257.51,59.84 257.89,59.79 258.28,59.75 258.66,59.72 259.05,59.69 259.44,59.67 259.82,59.65 260.21,59.63 260.6,59.62 260.98,59.61 261.37,59.61 261.76,59.6 262.14,59.6" stroke-dasharray="none" stroke="rgb(31,120,180)" stroke-width="0.75" opacity="1" stroke-opacity="1" fill="none"/>
          </g>
          <g id="Fig:densplot_01.xyplot.lines.group.5.panel.1.1.1">
            <polyline id="Fig:densplot_01.xyplot.lines.group.5.panel.1.1.1.1" points="64.65,59.6 65.04,59.6 65.43,59.61 65.81,59.62 66.2,59.63 66.59,59.65 66.97,59.67 67.36,59.69 67.75,59.73 68.13,59.78 68.52,59.84 68.9,59.91 69.29,60.01 69.68,60.13 70.06,60.28 70.45,60.47 70.84,60.7 71.22,60.98 71.61,61.32 72,61.73 72.38,62.22 72.77,62.79 73.16,63.48 73.54,64.29 73.93,65.23 74.32,66.3 74.7,67.54 75.09,68.93 75.48,70.5 75.86,72.3 76.25,74.3 76.64,76.52 77.02,78.95 77.41,81.6 77.79,84.48 78.18,87.58 78.57,90.95 78.95,94.54 79.34,98.33 79.73,102.31 80.11,106.48 80.5,110.81 80.89,115.3 81.27,119.92 81.66,124.64 82.05,129.44 82.43,134.28 82.82,139.14 83.21,144 83.59,148.84 83.98,153.61 84.37,158.3 84.75,162.9 85.14,167.37 85.52,171.72 85.91,175.91 86.3,179.93 86.68,183.76 87.07,187.4 87.46,190.86 87.84,194.13 88.23,197.2 88.62,200.09 89,202.76 89.39,205.23 89.78,207.51 90.16,209.61 90.55,211.54 90.94,213.29 91.32,214.87 91.71,216.27 92.1,217.5 92.48,218.58 92.87,219.51 93.26,220.3 93.64,220.96 94.03,221.49 94.41,221.87 94.8,222.13 95.19,222.29 95.57,222.34 95.96,222.29 96.35,222.16 96.73,221.94 97.12,221.63 97.51,221.25 97.89,220.81 98.28,220.31 98.67,219.76 99.05,219.16 99.44,218.52 99.83,217.84 100.21,217.12 100.6,216.37 100.99,215.59 101.37,214.77 101.76,213.93 102.15,213.07 102.53,212.17 102.92,211.25 103.3,210.3 103.69,209.32 104.08,208.32 104.46,207.3 104.85,206.25 105.24,205.17 105.62,204.07 106.01,202.95 106.4,201.81 106.78,200.66 107.17,199.48 107.56,198.29 107.94,197.09 108.33,195.86 108.72,194.63 109.1,193.39 109.49,192.14 109.88,190.88 110.26,189.61 110.65,188.34 111.04,187.06 111.42,185.79 111.81,184.51 112.19,183.24 112.58,181.97 112.97,180.71 113.35,179.47 113.74,178.24 114.13,177.03 114.51,175.85 114.9,174.68 115.29,173.55 115.67,172.45 116.06,171.39 116.45,170.37 116.83,169.38 117.22,168.44 117.61,167.54 117.99,166.67 118.38,165.86 118.77,165.09 119.15,164.35 119.54,163.65 119.92,162.99 120.31,162.35 120.7,161.75 121.08,161.17 121.47,160.61 121.86,160.07 122.24,159.54 122.63,159.03 123.02,158.51 123.4,158.01 123.79,157.5 124.18,157 124.56,156.49 124.95,155.98 125.34,155.46 125.72,154.94 126.11,154.41 126.5,153.87 126.88,153.32 127.27,152.76 127.66,152.2 128.04,151.63 128.43,151.05 128.81,150.46 129.2,149.86 129.59,149.25 129.97,148.63 130.36,148.01 130.75,147.38 131.13,146.74 131.52,146.1 131.91,145.45 132.29,144.8 132.68,144.15 133.07,143.5 133.45,142.84 133.84,142.19 134.23,141.55 134.61,140.91 135,140.27 135.39,139.64 135.77,139.03 136.16,138.42 136.55,137.83 136.93,137.24 137.32,136.68 137.7,136.12 138.09,135.59 138.48,135.06 138.86,134.55 139.25,134.05 139.64,133.57 140.02,133.09 140.41,132.63 140.8,132.18 141.18,131.74 141.57,131.3 141.96,130.87 142.34,130.45 142.73,130.03 143.12,129.61 143.5,129.19 143.89,128.77 144.28,128.35 144.66,127.93 145.05,127.51 145.44,127.1 145.82,126.68 146.21,126.26 146.59,125.84 146.98,125.42 147.37,125.01 147.75,124.6 148.14,124.19 148.53,123.79 148.91,123.4 149.3,123.01 149.69,122.63 150.07,122.26 150.46,121.9 150.85,121.54 151.23,121.2 151.62,120.86 152.01,120.54 152.39,120.22 152.78,119.91 153.17,119.61 153.55,119.31 153.94,119.03 154.32,118.75 154.71,118.47 155.1,118.2 155.48,117.93 155.87,117.67 156.26,117.41 156.64,117.15 157.03,116.89 157.42,116.63 157.8,116.37 158.19,116.11 158.58,115.84 158.96,115.58 159.35,115.32 159.74,115.05 160.12,114.79 160.51,114.53 160.9,114.27 161.28,114.01 161.67,113.75 162.06,113.5 162.44,113.25 162.83,113.01 163.21,112.78 163.6,112.55 163.99,112.34 164.37,112.13 164.76,111.93 165.15,111.75 165.53,111.57 165.92,111.41 166.31,111.25 166.69,111.11 167.08,110.97 167.47,110.85 167.85,110.73 168.24,110.62 168.63,110.51 169.01,110.41 169.4,110.32 169.79,110.22 170.17,110.12 170.56,110.03 170.95,109.92 171.33,109.82 171.72,109.7 172.1,109.58 172.49,109.44 172.88,109.3 173.26,109.14 173.65,108.97 174.04,108.79 174.42,108.59 174.81,108.38 175.2,108.15 175.58,107.92 175.97,107.67 176.36,107.41 176.74,107.14 177.13,106.86 177.52,106.58 177.9,106.29 178.29,106 178.68,105.71 179.06,105.42 179.45,105.14 179.84,104.85 180.22,104.57 180.61,104.3 180.99,104.03 181.38,103.77 181.77,103.52 182.15,103.28 182.54,103.04 182.93,102.81 183.31,102.59 183.7,102.38 184.09,102.17 184.47,101.97 184.86,101.77 185.25,101.58 185.63,101.39 186.02,101.21 186.41,101.02 186.79,100.84 187.18,100.67 187.57,100.49 187.95,100.32 188.34,100.15 188.72,99.98 189.11,99.81 189.5,99.64 189.88,99.48 190.27,99.32 190.66,99.16 191.04,99 191.43,98.85 191.82,98.7 192.2,98.55 192.59,98.4 192.98,98.26 193.36,98.11 193.75,97.97 194.14,97.82 194.52,97.68 194.91,97.53 195.3,97.38 195.68,97.23 196.07,97.07 196.46,96.91 196.84,96.74 197.23,96.57 197.61,96.39 198,96.2 198.39,96.01 198.77,95.8 199.16,95.6 199.55,95.38 199.93,95.16 200.32,94.94 200.71,94.71 201.09,94.49 201.48,94.26 201.87,94.03 202.25,93.81 202.64,93.59 203.03,93.37 203.41,93.16 203.8,92.95 204.19,92.76 204.57,92.57 204.96,92.38 205.35,92.21 205.73,92.03 206.12,91.87 206.5,91.71 206.89,91.56 207.28,91.41 207.66,91.26 208.05,91.11 208.44,90.96 208.82,90.81 209.21,90.66 209.6,90.5 209.98,90.34 210.37,90.17 210.76,90 211.14,89.82 211.53,89.63 211.92,89.43 212.3,89.23 212.69,89.01 213.08,88.79 213.46,88.55 213.85,88.31 214.24,88.06 214.62,87.8 215.01,87.53 215.39,87.26 215.78,86.98 216.17,86.69 216.55,86.4 216.94,86.11 217.33,85.81 217.71,85.51 218.1,85.21 218.49,84.92 218.87,84.62 219.26,84.33 219.65,84.04 220.03,83.75 220.42,83.47 220.81,83.2 221.19,82.93 221.58,82.67 221.97,82.42 222.35,82.17 222.74,81.93 223.13,81.69 223.51,81.46 223.9,81.24 224.28,81.02 224.67,80.8 225.06,80.58 225.44,80.37 225.83,80.16 226.22,79.94 226.6,79.73 226.99,79.51 227.38,79.3 227.76,79.08 228.15,78.86 228.54,78.64 228.92,78.41 229.31,78.18 229.7,77.96 230.08,77.73 230.47,77.5 230.86,77.27 231.24,77.04 231.63,76.81 232.01,76.59 232.4,76.37 232.79,76.15 233.17,75.93 233.56,75.72 233.95,75.51 234.33,75.31 234.72,75.11 235.11,74.91 235.49,74.71 235.88,74.52 236.27,74.33 236.65,74.14 237.04,73.95 237.43,73.77 237.81,73.58 238.2,73.39 238.59,73.2 238.97,73 239.36,72.81 239.75,72.61 240.13,72.4 240.52,72.19 240.9,71.98 241.29,71.75 241.68,71.52 242.06,71.28 242.45,71.04 242.84,70.78 243.22,70.51 243.61,70.23 244,69.94 244.38,69.64 244.77,69.33 245.16,69 245.54,68.66 245.93,68.31 246.32,67.94 246.7,67.57 247.09,67.18 247.48,66.79 247.86,66.39 248.25,65.98 248.64,65.58 249.02,65.17 249.41,64.77 249.79,64.37 250.18,63.98 250.57,63.6 250.95,63.23 251.34,62.88 251.73,62.54 252.11,62.23 252.5,61.93 252.89,61.65 253.27,61.39 253.66,61.16 254.05,60.95 254.43,60.76 254.82,60.58 255.21,60.43 255.59,60.3 255.98,60.18 256.37,60.08 256.75,59.99 257.14,59.92 257.53,59.86 257.91,59.8 258.3,59.76 258.68,59.72 259.07,59.69 259.46,59.67 259.84,59.65 260.23,59.64 260.62,59.63 261,59.62 261.39,59.61 261.78,59.6 262.16,59.6" stroke-dasharray="none" stroke="rgb(31,120,180)" stroke-width="0.75" opacity="1" stroke-opacity="1" fill="none"/>
          </g>
          <g id="Fig:densplot_01.xyplot.lines.group.6.panel.1.1.1">
            <polyline id="Fig:densplot_01.xyplot.lines.group.6.panel.1.1.1.1" points="64.74,59.6 65.13,59.6 65.52,59.61 65.9,59.62 66.29,59.63 66.68,59.64 67.06,59.66 67.45,59.69 67.84,59.72 68.22,59.76 68.61,59.82 68.99,59.89 69.38,59.98 69.77,60.09 70.15,60.23 70.54,60.4 70.93,60.62 71.31,60.88 71.7,61.2 72.08,61.57 72.47,62.02 72.86,62.56 73.24,63.2 73.63,63.96 74.02,64.83 74.4,65.84 74.79,66.99 75.18,68.3 75.56,69.79 75.95,71.49 76.33,73.39 76.72,75.49 77.11,77.81 77.49,80.35 77.88,83.11 78.27,86.11 78.65,89.37 79.04,92.85 79.43,96.54 79.81,100.44 80.2,104.53 80.58,108.8 80.97,113.24 81.36,117.84 81.74,122.55 82.13,127.35 82.52,132.21 82.9,137.12 83.29,142.05 83.67,146.96 84.06,151.83 84.45,156.64 84.83,161.35 85.22,165.96 85.61,170.44 85.99,174.78 86.38,178.94 86.77,182.91 87.15,186.7 87.54,190.29 87.92,193.68 88.31,196.88 88.7,199.87 89.08,202.63 89.47,205.17 89.86,207.51 90.24,209.67 90.63,211.63 91.01,213.4 91.4,215 91.79,216.4 92.17,217.63 92.56,218.71 92.95,219.64 93.33,220.43 93.72,221.08 94.11,221.62 94.49,222.01 94.88,222.3 95.26,222.49 95.65,222.58 96.04,222.59 96.42,222.52 96.81,222.37 97.2,222.14 97.58,221.85 97.97,221.51 98.35,221.11 98.74,220.66 99.13,220.16 99.51,219.61 99.9,219.02 100.29,218.39 100.67,217.71 101.06,217 101.45,216.25 101.83,215.46 102.22,214.63 102.6,213.76 102.99,212.85 103.38,211.91 103.76,210.93 104.15,209.92 104.54,208.87 104.92,207.79 105.31,206.67 105.69,205.53 106.08,204.36 106.47,203.17 106.85,201.96 107.24,200.74 107.63,199.5 108.01,198.24 108.4,196.98 108.79,195.72 109.17,194.45 109.56,193.18 109.94,191.92 110.33,190.67 110.72,189.42 111.1,188.18 111.49,186.96 111.88,185.76 112.26,184.56 112.65,183.39 113.04,182.24 113.42,181.12 113.81,180.01 114.19,178.93 114.58,177.87 114.97,176.84 115.35,175.83 115.74,174.85 116.13,173.89 116.51,172.96 116.9,172.05 117.28,171.17 117.67,170.3 118.06,169.46 118.44,168.63 118.83,167.83 119.22,167.03 119.6,166.25 119.99,165.48 120.38,164.72 120.76,163.97 121.15,163.23 121.53,162.49 121.92,161.75 122.31,161.02 122.69,160.29 123.08,159.57 123.47,158.85 123.85,158.13 124.24,157.42 124.62,156.72 125.01,156.02 125.4,155.33 125.78,154.64 126.17,153.97 126.56,153.3 126.94,152.65 127.33,152 127.72,151.36 128.1,150.73 128.49,150.11 128.87,149.49 129.26,148.87 129.65,148.26 130.03,147.66 130.42,147.05 130.81,146.44 131.19,145.83 131.58,145.22 131.96,144.61 132.35,143.99 132.74,143.37 133.12,142.75 133.51,142.13 133.9,141.5 134.28,140.87 134.67,140.25 135.06,139.62 135.44,139 135.83,138.39 136.21,137.77 136.6,137.17 136.99,136.57 137.37,135.99 137.76,135.42 138.15,134.85 138.53,134.3 138.92,133.77 139.3,133.25 139.69,132.74 140.08,132.25 140.46,131.78 140.85,131.31 141.24,130.87 141.62,130.43 142.01,130 142.4,129.59 142.78,129.18 143.17,128.79 143.55,128.39 143.94,128.01 144.33,127.62 144.71,127.24 145.1,126.86 145.49,126.47 145.87,126.08 146.26,125.7 146.65,125.3 147.03,124.91 147.42,124.51 147.8,124.1 148.19,123.69 148.58,123.29 148.96,122.88 149.35,122.47 149.74,122.06 150.12,121.66 150.51,121.26 150.89,120.87 151.28,120.49 151.67,120.11 152.05,119.74 152.44,119.39 152.83,119.05 153.21,118.72 153.6,118.4 153.99,118.1 154.37,117.81 154.76,117.53 155.14,117.27 155.53,117.02 155.92,116.79 156.3,116.57 156.69,116.35 157.08,116.15 157.46,115.96 157.85,115.77 158.23,115.6 158.62,115.43 159.01,115.26 159.39,115.1 159.78,114.95 160.17,114.79 160.55,114.64 160.94,114.49 161.33,114.33 161.71,114.18 162.1,114.02 162.48,113.87 162.87,113.71 163.26,113.55 163.64,113.38 164.03,113.22 164.42,113.05 164.8,112.87 165.19,112.7 165.57,112.52 165.96,112.34 166.35,112.15 166.73,111.97 167.12,111.78 167.51,111.59 167.89,111.4 168.28,111.21 168.67,111.02 169.05,110.83 169.44,110.65 169.82,110.46 170.21,110.27 170.6,110.08 170.98,109.9 171.37,109.72 171.76,109.53 172.14,109.35 172.53,109.17 172.91,108.98 173.3,108.8 173.69,108.62 174.07,108.43 174.46,108.24 174.85,108.05 175.23,107.85 175.62,107.65 176.01,107.45 176.39,107.25 176.78,107.04 177.16,106.82 177.55,106.6 177.94,106.38 178.32,106.15 178.71,105.92 179.1,105.69 179.48,105.45 179.87,105.21 180.26,104.97 180.64,104.73 181.03,104.48 181.41,104.24 181.8,104 182.19,103.75 182.57,103.52 182.96,103.28 183.35,103.05 183.73,102.83 184.12,102.61 184.5,102.39 184.89,102.19 185.28,101.98 185.66,101.79 186.05,101.6 186.44,101.42 186.82,101.24 187.21,101.06 187.6,100.89 187.98,100.72 188.37,100.55 188.75,100.38 189.14,100.21 189.53,100.04 189.91,99.87 190.3,99.69 190.69,99.51 191.07,99.33 191.46,99.15 191.84,98.96 192.23,98.77 192.62,98.58 193,98.39 193.39,98.2 193.78,98.01 194.16,97.82 194.55,97.63 194.94,97.45 195.32,97.27 195.71,97.09 196.09,96.92 196.48,96.75 196.87,96.58 197.25,96.41 197.64,96.25 198.03,96.09 198.41,95.93 198.8,95.77 199.18,95.61 199.57,95.45 199.96,95.28 200.34,95.11 200.73,94.94 201.12,94.76 201.5,94.57 201.89,94.38 202.28,94.18 202.66,93.98 203.05,93.77 203.43,93.56 203.82,93.34 204.21,93.12 204.59,92.9 204.98,92.68 205.37,92.45 205.75,92.23 206.14,92 206.52,91.78 206.91,91.56 207.3,91.35 207.68,91.13 208.07,90.93 208.46,90.72 208.84,90.52 209.23,90.33 209.62,90.13 210,89.94 210.39,89.75 210.77,89.56 211.16,89.37 211.55,89.18 211.93,88.98 212.32,88.79 212.71,88.58 213.09,88.38 213.48,88.17 213.87,87.95 214.25,87.72 214.64,87.49 215.02,87.25 215.41,87.01 215.8,86.76 216.18,86.5 216.57,86.23 216.96,85.96 217.34,85.69 217.73,85.41 218.11,85.12 218.5,84.84 218.89,84.55 219.27,84.26 219.66,83.97 220.05,83.68 220.43,83.4 220.82,83.11 221.21,82.83 221.59,82.55 221.98,82.27 222.36,82 222.75,81.74 223.14,81.48 223.52,81.23 223.91,80.98 224.3,80.74 224.68,80.5 225.07,80.27 225.45,80.05 225.84,79.83 226.23,79.62 226.61,79.42 227,79.21 227.39,79.02 227.77,78.82 228.16,78.63 228.55,78.45 228.93,78.26 229.32,78.08 229.7,77.9 230.09,77.71 230.48,77.53 230.86,77.35 231.25,77.16 231.64,76.97 232.02,76.78 232.41,76.59 232.79,76.39 233.18,76.2 233.57,76 233.95,75.79 234.34,75.59 234.73,75.38 235.11,75.17 235.5,74.95 235.89,74.74 236.27,74.52 236.66,74.3 237.04,74.09 237.43,73.86 237.82,73.64 238.2,73.42 238.59,73.2 238.98,72.97 239.36,72.75 239.75,72.52 240.13,72.29 240.52,72.05 240.91,71.81 241.29,71.57 241.68,71.33 242.07,71.07 242.45,70.82 242.84,70.55 243.23,70.28 243.61,70 244,69.71 244.38,69.41 244.77,69.1 245.16,68.78 245.54,68.45 245.93,68.11 246.32,67.76 246.7,67.4 247.09,67.03 247.48,66.66 247.86,66.28 248.25,65.89 248.63,65.5 249.02,65.11 249.41,64.73 249.79,64.34 250.18,63.97 250.57,63.6 250.95,63.24 251.34,62.9 251.72,62.57 252.11,62.26 252.5,61.97 252.88,61.69 253.27,61.44 253.66,61.2 254.04,60.99 254.43,60.8 254.82,60.62 255.2,60.47 255.59,60.33 255.97,60.21 256.36,60.11 256.75,60.01 257.13,59.94 257.52,59.87 257.91,59.82 258.29,59.77 258.68,59.73 259.06,59.7 259.45,59.68 259.84,59.66 260.22,59.64 260.61,59.63 261,59.62 261.38,59.61 261.77,59.6 262.16,59.6" stroke-dasharray="none" stroke="rgb(31,120,180)" stroke-width="0.75" opacity="1" stroke-opacity="1" fill="none"/>
          </g>
        </g>
        <g id="Fig:densplot_01.panel.1.1.off.vp.2">
          <g id="Fig:densplot_01.border.panel.1.1.1">
            <rect id="Fig:densplot_01.border.panel.1.1.1.1" x="50.8" y="48.19" width="225.2" height="185.81" transform="" stroke="rgb(0,0,0)" stroke-dasharray="none" stroke-width="0.75" opacity="1" fill="none" stroke-opacity="1" fill-opacity="0"/>
          </g>
        </g>
        <g id="Fig:densplot_01..1"/>
      </g>
    </g>
  </g>
</svg>